<svg id="visual" viewBox="0 0 960 540" width="960" height="540" xmlns="http://www.w3.org/2000/svg" xmlns:xlink="http://www.w3.org/1999/xlink" version="1.1"><rect x="0" y="0" width="960" height="540" fill="#343434"></rect><path d="M0 138L22.8 147.3C45.7 156.7 91.3 175.3 137 185.5C182.7 195.7 228.3 197.3 274 189.7C319.7 182 365.3 165 411.2 164C457 163 503 178 548.8 185.3C594.7 192.7 640.3 192.3 686 183.5C731.7 174.7 777.3 157.3 823 149C868.7 140.7 914.3 141.3 937.2 141.7L960 142L960 0L937.2 0C914.3 0 868.7 0 823 0C777.3 0 731.7 0 686 0C640.3 0 594.7 0 548.8 0C503 0 457 0 411.2 0C365.3 0 319.7 0 274 0C228.3 0 182.7 0 137 0C91.3 0 45.7 0 22.8 0L0 0Z" fill="#ec5c24" stroke-linecap="round" stroke-linejoin="miter"></path></svg>